<?xml version="1.0" standalone="no"?>
<!DOCTYPE svg PUBLIC "-//W3C//DTD SVG 20010904//EN"
 "http://www.w3.org/TR/2001/REC-SVG-20010904/DTD/svg10.dtd">
<svg version="1.0" xmlns="http://www.w3.org/2000/svg"
 width="465.000000pt" height="549.000000pt" viewBox="0 0 465.000000 549.000000"
 preserveAspectRatio="xMidYMid meet">
<metadata>
Created by potrace 1.16, written by Peter Selinger 2001-2019
</metadata>
<g transform="translate(0.000000,549.000000) scale(0.100000,-0.100000)"
fill="#000000" stroke="none">
<path d="M2180 5283 c-43 -16 -86 -87 -75 -122 4 -13 2 -21 -5 -21 -8 0 -9
-10 -5 -28 8 -38 -17 -62 -46 -44 -25 16 -30 15 -23 -3 7 -18 -7 -20 -24 -3
-8 8 -15 9 -23 1 -7 -7 4 -14 37 -23 30 -9 48 -20 52 -32 2 -10 8 -16 12 -13
4 3 10 -7 13 -20 5 -31 -12 -45 -20 -16 -3 12 -12 21 -19 21 -8 0 -17 7 -20
15 -4 8 -10 15 -15 15 -6 0 -5 -9 1 -20 14 -26 2 -25 -27 2 -16 15 -23 17 -23
7 0 -11 -2 -11 -8 -1 -9 13 -72 25 -72 13 0 -6 -48 -7 -60 -1 -3 1 -9 2 -14 1
-4 -1 -14 3 -21 9 -8 7 -16 7 -19 2 -3 -6 6 -13 20 -16 l26 -7 -35 -27 c-19
-15 -39 -39 -45 -54 -6 -16 -18 -31 -27 -34 -20 -8 -44 22 -45 56 0 28 59 99
78 92 7 -2 12 1 12 7 0 6 -7 11 -16 11 -8 0 -12 5 -9 10 9 14 4 13 -41 -10
-21 -10 -34 -19 -28 -20 20 0 24 -28 7 -42 -14 -11 -15 -10 -9 10 4 12 3 22
-2 22 -13 0 -72 -68 -72 -83 0 -7 -10 -17 -22 -22 -13 -6 -28 -20 -34 -32 -6
-13 -14 -20 -17 -16 -4 3 -7 1 -7 -6 0 -7 -4 -10 -9 -7 -5 4 -7 -4 -4 -16 l5
-23 -16 23 c-36 47 -37 22 -5 -65 5 -13 5 -23 0 -23 -9 0 -23 41 -25 70 -1 8
-6 14 -13 13 -7 -2 -10 4 -7 12 4 8 1 15 -5 15 -6 0 -11 -8 -11 -17 -1 -14 -7
-11 -26 12 -15 17 -24 22 -20 13 3 -12 0 -18 -9 -18 -8 0 -15 9 -15 20 0 11
-7 20 -16 20 -11 0 -14 -6 -9 -20 5 -14 2 -20 -9 -20 -9 0 -16 -7 -16 -15 0
-9 -17 -19 -45 -26 -25 -6 -43 -14 -41 -17 3 -3 -14 -17 -37 -32 -40 -25 -65
-54 -94 -108 -7 -12 -8 -20 -3 -17 6 4 10 -3 10 -14 0 -22 -5 -24 -53 -23 -24
1 -25 -1 -12 -14 29 -29 15 -60 -19 -42 -17 8 -19 8 -9 -2 9 -10 9 -19 1 -34
-9 -17 -8 -19 3 -8 18 16 29 15 29 -3 0 -9 -9 -15 -24 -15 -31 0 -42 -16 -16
-23 11 -3 20 -10 20 -15 0 -14 -47 -21 -59 -9 -8 8 -11 7 -11 -3 0 -13 -14 -5
-15 8 -1 4 -5 18 -9 30 -6 18 -3 29 13 43 25 24 26 28 4 25 -9 -2 -27 -16 -39
-31 -20 -25 -24 -27 -30 -12 -3 10 0 25 7 34 12 14 12 16 0 9 -11 -7 -13 -1
-9 28 2 22 0 32 -5 27 -13 -13 -13 -94 0 -158 8 -41 7 -51 -2 -43 -6 5 -15 6
-20 2 -4 -4 -3 3 4 15 15 28 14 33 -4 33 -9 0 -19 9 -23 20 -8 20 -8 20 -32
-5 -13 -14 -18 -25 -12 -25 7 0 12 -7 12 -16 0 -8 -4 -13 -9 -10 -4 3 -6 -6
-3 -20 3 -16 7 -21 12 -14 5 7 9 2 12 -14 3 -15 3 -24 0 -21 -3 3 -14 -2 -23
-11 -17 -16 -19 -15 -25 1 -4 10 -1 21 7 27 11 8 10 9 -3 4 -13 -4 -19 3 -24
28 -9 50 30 116 68 116 11 0 17 4 14 9 -9 14 -77 -7 -103 -31 -12 -12 -30 -43
-38 -69 -17 -51 -24 -56 -55 -39 -11 6 -21 6 -24 1 -5 -8 22 -24 34 -21 6 2
18 -31 19 -52 1 -24 -21 -23 -54 4 -18 14 -26 17 -23 7 2 -8 14 -19 25 -24 17
-9 19 -14 9 -27 -11 -15 -15 -16 -42 -2 -18 10 -24 10 -16 3 13 -14 17 -40 5
-38 -25 4 -34 -3 -28 -21 4 -12 2 -20 -6 -20 -7 0 -9 10 -6 30 4 19 1 34 -9
45 -8 8 -12 20 -8 26 4 8 3 9 -4 5 -7 -4 -12 -1 -12 8 0 8 -4 17 -9 21 -11 6
-9 -11 8 -71 13 -46 14 -74 4 -73 -19 3 -36 -2 -30 -8 4 -3 2 -12 -4 -20 -9
-9 -8 -13 0 -13 6 0 11 -5 11 -10 0 -6 -9 -5 -21 2 -18 11 -23 11 -27 -1 -2
-7 -13 -22 -23 -32 -11 -11 -15 -19 -10 -19 5 0 11 -9 14 -21 4 -14 10 -18 19
-13 7 4 10 4 6 -1 -4 -4 -2 -17 3 -28 9 -16 7 -24 -14 -43 -14 -12 -28 -20
-32 -16 -4 4 -5 0 -3 -8 1 -8 -3 -14 -10 -12 -7 1 -17 -9 -22 -24 -8 -19 -6
-29 6 -41 8 -9 13 -22 10 -29 -3 -8 1 -14 9 -14 10 0 15 -10 15 -28 0 -15 6
-34 13 -41 6 -7 8 -12 2 -11 -5 2 -21 2 -35 1 -25 -2 -25 -2 -3 -11 16 -7 21
-14 16 -26 -4 -10 -2 -15 4 -11 6 4 7 -9 3 -38 -4 -24 -4 -46 0 -47 4 -2 10
-15 13 -30 7 -26 6 -26 -25 -17 l-33 9 30 -24 c30 -24 45 -82 19 -72 -8 3 -12
-5 -12 -25 1 -16 5 -29 11 -29 5 0 5 -6 -2 -13 -7 -10 -7 -17 0 -24 12 -12 19
-154 7 -147 -4 3 -8 15 -8 27 l0 21 -15 -21 c-13 -18 -13 -26 -1 -60 9 -26 11
-45 4 -56 -6 -12 -5 -17 4 -17 8 0 24 -7 37 -16 l22 -16 -22 -22 c-22 -20 -23
-21 -4 -24 11 -2 27 -10 36 -18 9 -8 19 -11 22 -7 4 3 7 2 7 -4 0 -6 -7 -16
-15 -23 -13 -10 -19 -10 -34 4 -11 10 -25 14 -37 9 -16 -6 -17 -5 -6 9 14 18
3 31 -16 19 -9 -5 -9 -13 1 -34 13 -28 27 -36 27 -14 0 8 3 7 10 -3 6 -9 6
-18 0 -24 -16 -16 -11 -30 5 -16 9 7 15 8 15 2 0 -5 17 -14 38 -20 l37 -9 -27
-8 c-28 -7 -39 -25 -15 -25 16 0 77 -63 77 -80 0 -7 7 -10 15 -6 11 4 15 -1
15 -19 0 -20 5 -25 25 -25 14 0 25 5 25 10 0 6 4 10 10 10 5 0 7 -7 4 -15 -4
-10 0 -15 15 -15 26 0 26 -1 1 -45 -25 -44 -26 -63 -4 -44 15 12 16 10 9 -20
-6 -27 -4 -32 6 -25 9 5 8 -1 -3 -18 -18 -27 -15 -63 5 -51 6 3 7 1 3 -6 -4
-6 -8 -29 -8 -51 0 -22 -4 -37 -9 -34 -12 7 -11 -13 1 -37 6 -10 17 -19 25
-19 8 0 22 -11 31 -25 13 -20 14 -28 4 -40 -10 -12 -10 -18 0 -30 7 -8 9 -15
5 -15 -4 0 -2 -6 4 -14 10 -11 8 -15 -6 -19 -11 -3 -8 -5 10 -6 16 -1 26 -5
22 -11 -4 -6 -12 -7 -18 -4 -9 5 -9 4 0 -6 7 -8 8 -22 3 -40 -13 -45 8 -55
112 -54 48 1 88 -2 88 -7 0 -5 5 -9 11 -9 5 0 7 5 4 10 -3 6 -1 10 4 10 6 0
11 -5 11 -11 0 -6 6 -9 14 -6 17 7 33 -24 41 -81 4 -24 16 -51 26 -61 15 -13
18 -26 14 -50 -6 -35 19 -106 34 -96 5 3 19 -5 30 -17 l21 -22 1 25 1 24 8
-25 c11 -36 11 -52 0 -45 -5 3 -10 -1 -10 -9 0 -9 5 -16 10 -16 6 0 10 -7 10
-16 0 -8 4 -13 9 -10 9 6 21 -27 27 -71 1 -13 9 -32 17 -43 8 -11 13 -34 11
-51 -2 -17 0 -27 6 -24 8 5 5 68 -4 84 -9 14 -20 201 -19 311 1 123 9 176 27
199 12 16 14 27 19 123 2 47 9 73 21 87 14 15 17 29 12 58 l-6 38 15 -27 c9
-15 27 -29 45 -33 45 -10 66 -45 84 -145 21 -117 51 -197 81 -216 87 -57 396
-82 560 -46 59 13 92 16 96 10 4 -6 26 7 51 31 31 28 64 77 106 158 71 138
109 188 135 178 9 -4 17 -13 17 -21 0 -7 13 -20 29 -29 16 -8 32 -24 36 -35 3
-11 11 -20 16 -20 6 0 17 -17 25 -37 28 -68 106 -218 118 -225 6 -4 13 -3 16
2 3 5 36 -1 74 -14 50 -18 62 -25 45 -28 -31 -4 -34 -43 -6 -63 18 -13 19 -15
4 -21 -18 -7 -23 -49 -8 -59 5 -3 15 -30 21 -60 6 -31 15 -53 20 -50 4 3 15
-11 24 -30 9 -19 22 -35 29 -35 7 0 6 -4 -3 -10 -13 -8 -12 -10 2 -10 12 0 17
-7 15 -23 -1 -12 -6 -25 -10 -28 -5 -3 -10 -15 -11 -25 -2 -11 -12 -20 -25
-22 -12 -2 -19 -8 -15 -13 3 -6 7 -21 9 -35 2 -21 0 -22 -13 -12 -13 11 -15
10 -9 -5 4 -11 3 -16 -3 -12 -6 3 -10 2 -10 -3 0 -6 -46 -9 -112 -9 l-113 2 3
36 c3 28 -2 42 -19 58 -13 12 -19 21 -14 21 5 0 18 -9 30 -20 21 -19 21 -19
23 4 2 24 -21 41 -40 30 -6 -4 -6 1 1 13 13 25 4 35 -20 23 -12 -7 -19 -6 -23
3 -5 9 -7 9 -12 -1 -5 -10 -9 -9 -18 4 -7 9 -18 14 -24 10 -13 -8 -4 -37 14
-48 13 -9 7 -48 -8 -48 -5 0 -7 4 -3 9 3 5 0 13 -6 17 -7 4 -9 3 -6 -3 4 -6
-1 -19 -9 -29 -9 -10 -13 -13 -9 -6 3 6 1 12 -4 12 -6 0 -11 -12 -11 -27 0
-22 2 -25 10 -13 5 8 10 11 11 5 0 -5 2 -20 5 -32 3 -18 -2 -24 -24 -30 -60
-16 -92 3 -67 40 9 15 14 30 11 36 -9 14 -56 -11 -56 -31 0 -26 -38 -31 -189
-25 -135 6 -221 21 -221 39 0 5 -4 7 -8 4 -12 -7 -54 42 -47 54 4 6 -1 10 -9
10 -8 0 -18 -4 -21 -10 -3 -5 -11 -10 -16 -10 -6 0 -7 5 -4 10 3 6 -5 14 -19
20 -14 5 -26 14 -26 19 0 16 -40 20 -55 4 -26 -25 -20 -49 33 -133 12 -19 22
-44 22 -55 0 -11 4 -26 9 -33 12 -19 75 9 92 40 23 43 40 49 78 26 21 -13 35
-17 40 -11 7 13 238 0 334 -19 75 -14 135 -15 292 -4 119 8 121 8 150 -16 17
-14 35 -23 42 -21 7 2 13 -8 15 -24 2 -16 8 -27 16 -26 6 2 12 -1 12 -6 0 -5
13 -12 30 -16 16 -4 32 -15 35 -26 4 -11 11 -17 16 -13 6 3 8 11 6 18 -3 6 3
12 13 12 12 0 16 -6 12 -16 -4 -12 -2 -13 9 -2 17 16 37 16 21 0 -15 -15 -16
-28 -2 -28 5 0 9 6 7 12 -1 7 3 12 10 11 7 -2 10 3 7 11 -3 8 -1 17 5 21 6 3
11 11 11 16 0 6 -4 7 -10 4 -18 -11 -11 7 10 25 12 10 18 25 15 39 -2 13 2 24
11 28 8 3 21 20 29 37 9 18 34 52 56 76 34 36 39 39 35 19 -3 -13 -10 -52 -16
-86 -6 -35 -17 -80 -24 -100 -7 -21 -11 -44 -9 -51 3 -7 -1 -10 -11 -6 -20 8
-20 -3 0 -23 10 -10 13 -25 9 -40 -3 -15 0 -29 9 -38 15 -15 10 -59 -5 -49
-15 9 -10 -6 7 -24 11 -10 13 -17 5 -20 -18 -6 -13 -21 7 -17 9 1 22 -2 29 -7
7 -6 14 -5 19 3 5 8 3 9 -6 4 -9 -5 -11 -4 -6 4 12 19 26 1 20 -25 -5 -20 -3
-23 10 -18 11 4 15 13 10 26 -4 14 -2 19 7 16 7 -2 28 17 46 44 32 46 40 69
42 113 1 15 3 17 10 6 5 -8 11 -9 15 -3 3 6 -3 13 -14 17 -14 4 -20 15 -20 35
0 16 -3 36 -7 46 -4 12 -3 15 5 10 7 -4 12 -2 12 4 0 6 8 27 17 48 9 20 18 53
19 72 1 19 6 55 12 80 15 63 4 140 -18 140 -10 0 -23 -7 -30 -15 -7 -8 -24
-15 -37 -15 -20 0 -23 3 -14 13 6 8 8 17 4 21 -4 4 -15 -3 -24 -16 -16 -21
-17 -21 -16 -3 1 14 -4 20 -15 19 -18 -2 -22 6 -19 36 1 11 -1 11 -9 -3 -9
-14 -15 -15 -33 -6 -21 12 -38 15 -85 18 -14 0 -21 5 -16 12 4 8 0 8 -15 0
-18 -10 -25 -8 -48 16 -14 15 -23 22 -18 14 5 -9 -1 -7 -19 4 -26 17 -37 33
-13 19 6 -4 -2 7 -20 26 -18 18 -30 37 -27 42 3 4 0 8 -6 8 -6 0 -8 5 -5 11 4
6 9 8 13 5 3 -3 11 2 19 12 8 9 12 11 8 5 -9 -19 2 -16 22 6 15 16 39 19 163
24 168 6 245 23 275 61 12 15 34 60 50 102 18 47 31 70 36 62 4 -7 4 -15 -2
-18 -6 -4 -4 -21 6 -43 17 -40 21 -281 6 -371 -7 -43 -7 -47 5 -31 8 10 14 35
14 55 0 20 4 40 9 45 6 6 11 33 13 60 2 40 6 50 20 49 10 -1 15 2 12 7 -3 5 6
13 20 19 14 5 35 19 46 30 11 11 25 18 29 15 19 -11 30 23 25 76 -4 51 -3 56
20 67 19 9 24 8 22 -4 -1 -8 -11 -21 -22 -29 -16 -13 -17 -14 -1 -9 11 4 17 2
15 -6 -2 -6 5 -17 14 -23 14 -9 22 -7 41 11 13 12 27 19 30 15 4 -3 7 -1 7 5
0 7 3 11 8 10 15 -5 68 24 85 48 10 14 20 43 21 66 2 22 8 43 13 47 8 5 24 35
27 51 1 3 14 17 29 32 15 15 27 34 27 42 0 18 51 60 59 48 3 -5 20 6 37 24 17
19 29 36 26 38 -2 3 5 17 16 31 11 14 24 40 28 58 3 17 14 43 23 56 12 19 15
53 16 161 0 131 -1 137 -20 136 -14 -1 -19 5 -18 19 1 11 -3 23 -9 26 -7 4 -7
9 1 13 6 4 11 3 11 -3 0 -5 9 -9 19 -8 11 0 17 5 15 9 -3 4 -7 17 -9 28 -2 11
-13 29 -24 42 -12 12 -21 28 -21 35 0 7 -5 13 -11 13 -5 0 -7 4 -4 10 3 6 15
10 26 10 13 0 19 7 19 22 0 12 -3 18 -7 15 -3 -4 -13 2 -21 14 -12 18 -12 22
4 35 15 11 16 13 3 8 -18 -6 -37 14 -23 25 12 8 14 41 2 41 -5 0 -6 5 -3 10 4
6 11 7 17 4 6 -4 6 1 -1 14 -13 25 -14 62 -2 62 5 0 12 -6 14 -12 3 -7 6 -3 6
8 1 12 -6 24 -14 28 -8 3 -18 23 -21 46 -4 22 -10 40 -15 40 -5 0 -9 4 -9 10
0 5 7 7 15 4 8 -4 15 -1 15 5 0 6 -5 11 -12 11 -6 0 -8 3 -5 7 4 3 2 12 -5 20
-9 11 -7 18 6 31 11 11 19 13 24 6 4 -6 14 -13 23 -16 15 -6 14 -1 -2 43 -18
47 -18 50 -2 56 21 8 34 24 27 35 -3 4 -21 -4 -40 -18 -28 -22 -37 -24 -49
-14 -8 7 -15 9 -15 5 0 -4 -7 -2 -15 5 -22 18 13 51 58 53 33 2 43 17 11 17
-8 0 -14 5 -14 10 0 20 -44 29 -62 13 -15 -13 -16 -13 -14 2 1 10 16 23 32 30
19 8 30 20 31 35 1 13 6 26 10 29 8 6 13 36 14 75 0 10 8 30 19 45 10 14 22
37 25 51 7 25 7 24 -15 -4 l-23 -28 -14 26 c-20 39 -29 32 -24 -21 3 -42 1
-45 -15 -39 -11 4 -34 10 -53 13 -30 5 -37 13 -63 69 -24 51 -35 64 -59 69
-16 4 -33 14 -38 23 -16 32 -22 104 -10 118 18 22 15 95 -5 106 -21 12 -21 29
0 21 9 -3 20 -15 25 -27 8 -20 9 -19 6 4 -1 15 -11 29 -24 35 -13 5 -23 18
-23 28 0 22 -29 81 -37 74 -2 -3 1 -16 8 -29 15 -26 22 -58 13 -58 -10 0 -50
34 -53 45 -1 6 -5 11 -7 13 -2 1 -2 -1 1 -5 3 -3 -8 -12 -22 -20 -18 -9 -29
-11 -31 -4 -2 6 -7 9 -12 6 -4 -3 -14 3 -21 13 -13 15 -12 16 4 3 23 -18 24 5
0 31 -14 16 -15 24 -5 50 11 29 10 30 -7 14 -11 -10 -22 -13 -25 -8 -10 16
-62 19 -75 4 -7 -7 -18 -11 -24 -9 -6 2 -19 -5 -30 -16 -14 -14 -28 -18 -52
-14 -25 4 -38 1 -51 -14 -9 -10 -20 -17 -22 -14 -3 3 3 11 13 19 17 12 16 13
-6 10 -13 -1 -26 -3 -29 -4 -3 -1 -9 -2 -14 -1 -4 1 -14 -4 -22 -10 -8 -7 -17
-9 -20 -6 -9 8 6 28 16 22 5 -3 11 -1 14 4 4 5 2 12 -3 15 -5 4 -12 2 -16 -3
-4 -7 -15 -6 -31 1 -24 11 -24 12 -6 32 22 24 35 66 20 66 -5 0 -6 5 -3 10 4
6 10 8 15 5 4 -3 14 3 21 12 12 14 11 15 -9 9 -20 -7 -21 -5 -12 18 11 30 3
34 -16 9 -13 -17 -13 -17 -15 2 -1 11 -1 26 0 33 1 8 -3 20 -10 28 -8 10 -8
14 0 14 6 0 13 -11 17 -25 3 -14 12 -25 20 -25 17 0 18 17 2 23 -10 4 -10 6 0
6 10 1 10 6 2 21 -6 11 -8 24 -6 29 3 5 0 24 -8 42 -7 19 -11 40 -8 48 3 10 0
12 -12 8 -9 -4 -16 -3 -16 1 0 11 40 33 50 27 5 -3 11 -1 15 5 4 6 -7 10 -28
10 -23 0 -47 -10 -72 -30 -37 -30 -62 -40 -50 -20 3 6 2 10 -4 10 -6 0 -9 -14
-6 -32 5 -40 -14 -88 -35 -88 -13 0 -13 1 0 10 10 6 11 10 3 10 -20 0 -15 17
7 23 11 3 20 11 20 18 0 10 -3 10 -12 1 -14 -14 -32 -16 -23 -3 3 5 1 13 -5
16 -8 5 -8 11 0 20 8 9 6 17 -6 30 -10 9 -13 20 -8 23 5 4 10 16 11 27 1 19 1
19 -12 1 -13 -17 -14 -16 -10 15 2 19 6 57 9 84 4 49 4 49 -9 20 -8 -16 -15
-25 -16 -20 0 6 -4 -1 -8 -14 -4 -14 -13 -27 -20 -29 -9 -3 -12 1 -9 9 3 8 2
22 -1 32 -4 12 -13 -19 -22 -76 -9 -59 -11 -95 -5 -94 16 3 25 -71 10 -84 -7
-6 -10 -18 -7 -27 5 -14 3 -13 -9 2 -8 10 -13 29 -10 42 2 14 0 24 -7 24 -6 0
-11 6 -11 13 0 7 -7 22 -15 33 -15 18 -15 18 -13 -11 2 -16 6 -33 11 -36 13
-10 16 -48 5 -79 -7 -22 -13 -28 -22 -21 -9 7 -16 7 -24 -1 -9 -9 -15 -9 -23
-1 -8 8 -8 13 0 17 6 4 11 4 11 -1 0 -4 11 10 23 32 18 30 21 44 13 57 -5 9
-14 14 -20 11 -5 -4 -7 1 -3 10 5 14 2 15 -19 7 -32 -12 -37 -12 -29 -1 3 5 1
12 -4 15 -5 4 1 18 15 33 13 14 24 32 24 39 0 8 5 14 10 14 6 0 10 12 10 26 0
32 -29 96 -40 89 -5 -3 -11 -1 -15 5 -3 5 -1 10 5 10 5 0 0 15 -12 34 -13 19
-25 33 -27 31 -2 -3 2 -11 9 -20 15 -19 5 -34 -12 -17 -7 7 -19 12 -27 12 -9
-1 -4 -7 12 -16 15 -8 25 -19 22 -24 -4 -6 -1 -10 6 -10 10 0 10 -3 1 -12 -9
-9 -25 -8 -68 2 -43 10 -63 11 -86 2 -16 -6 -36 -8 -44 -5 -12 4 -9 12 16 34
17 16 28 29 25 29 -14 0 -65 -31 -65 -40 0 -6 -4 -10 -10 -10 -5 0 -10 7 -10
16 0 8 -4 12 -10 9 -6 -3 -7 1 -4 9 3 9 1 16 -5 16 -6 0 -8 7 -5 15 9 23 -4
18 -32 -12 -19 -20 -21 -28 -12 -35 14 -8 4 -12 -25 -8 -15 1 -18 -3 -13 -22
6 -23 6 -23 -6 1 -22 42 -80 101 -101 101 -14 0 -17 5 -12 18 5 13 4 14 -6 5
-15 -15 7 -47 28 -39 14 6 19 -9 6 -17 -5 -2 -2 -2 5 -1 6 2 12 -1 12 -6 0 -6
-5 -10 -11 -10 -8 0 -7 -6 2 -17 13 -17 13 -17 -11 -1 -15 10 -24 23 -22 34 2
11 1 16 -4 12 -4 -4 -13 0 -20 10 -13 16 -13 16 -14 -1 0 -10 11 -29 25 -43
31 -31 32 -48 4 -39 -15 5 -19 4 -15 -4 8 -12 -6 -15 -18 -4 -3 4 -17 8 -29
10 -17 2 -19 1 -7 -6 8 -6 11 -14 6 -18 -13 -13 -65 -9 -71 6 -6 14 25 42 37
35 5 -3 8 0 8 6 0 8 -7 9 -17 5 -10 -4 -30 -10 -45 -12 -20 -4 -29 -13 -33
-34 -4 -16 -11 -29 -17 -29 -6 0 -7 7 -4 16 7 19 -8 50 -29 58 -10 4 -15 -1
-15 -16 0 -17 2 -18 15 -8 9 7 15 8 15 2 0 -12 -26 -23 -34 -15 -3 4 -5 29 -5
57 1 28 4 40 6 26 6 -32 43 -57 43 -30 0 6 -6 9 -12 8 -8 -2 -13 8 -13 27 0
23 5 31 23 33 24 4 31 22 8 22 -8 0 -17 6 -19 13 -4 9 -8 8 -16 -3 -6 -8 -11
-10 -11 -4 0 6 7 17 15 24 8 7 15 9 15 5 0 -5 8 -1 19 9 10 9 25 14 35 10 9
-3 16 -1 16 5 0 6 -9 11 -19 11 -11 0 -25 2 -33 4 -7 3 -20 2 -28 -1z m685
-263 c-3 -5 -2 -10 4 -10 5 0 11 6 14 13 2 6 8 9 12 4 5 -4 -2 -18 -15 -32
-13 -14 -18 -25 -12 -25 20 0 -16 -47 -41 -54 -21 -5 -21 -4 3 13 22 17 23 22
12 46 -7 15 -16 25 -19 21 -4 -3 -1 -12 5 -18 17 -17 15 -31 -3 -24 -8 3 -15
1 -15 -5 0 -24 -41 -54 -70 -51 -23 3 -32 -2 -41 -20 -6 -13 -20 -30 -32 -38
-20 -12 -21 -12 -8 3 8 10 9 17 3 17 -6 0 -10 9 -9 19 0 11 5 17 9 15 5 -3 11
2 14 11 4 10 13 14 23 10 12 -5 13 -3 5 5 -15 15 -6 50 13 50 8 0 11 5 7 13
-6 10 -4 10 7 0 18 -18 34 -16 20 1 -10 12 -5 14 26 14 20 0 39 5 41 11 3 9 8
9 18 0 11 -9 14 -8 14 5 0 9 5 16 11 16 5 0 7 -4 4 -10z m-132 -2106 c-3 -9 3
-13 24 -11 17 1 27 -3 26 -10 -2 -8 4 -10 14 -6 11 4 14 3 9 -5 -5 -8 -2 -10
8 -6 9 3 16 2 16 -2 0 -5 15 -10 33 -11 23 -2 28 0 17 7 -10 6 -11 10 -3 10 7
0 18 -9 25 -20 7 -11 22 -20 33 -21 11 0 29 -5 40 -10 19 -9 18 -9 -3 -5 -12
2 -20 0 -16 -5 8 -13 41 -11 48 4 3 6 3 1 0 -11 -5 -21 -3 -23 16 -17 13 4 20
3 17 -2 -7 -10 106 -9 123 2 5 3 10 1 10 -6 0 -10 3 -10 12 -1 7 7 19 12 28
12 20 0 85 -47 85 -61 0 -6 14 -22 31 -37 31 -27 55 -94 37 -105 -5 -3 -26 10
-48 28 -48 42 -130 86 -141 75 -5 -4 -40 -3 -77 3 -47 7 -71 7 -75 0 -4 -5
-17 -9 -29 -8 -12 1 -20 -2 -17 -7 3 -4 -2 -8 -10 -8 -8 0 -18 4 -21 10 -3 5
-21 9 -40 7 -18 -1 -31 -5 -29 -9 2 -4 -23 -5 -56 -2 -36 3 -60 0 -60 -6 0 -5
-7 -7 -16 -3 -9 3 -23 -3 -35 -16 -19 -20 -21 -20 -37 -5 -10 11 -17 13 -20 5
-2 -6 -10 -11 -18 -11 -8 0 -14 -4 -14 -9 0 -11 -57 -26 -85 -22 -11 2 -23 8
-27 15 -5 7 -8 6 -8 -4 -1 -11 -4 -10 -15 4 -8 11 -15 14 -15 8 0 -7 -7 -12
-15 -12 -8 0 -15 4 -15 10 0 5 -11 12 -24 16 -18 4 -23 11 -18 22 4 13 3 15
-9 7 -15 -11 -55 -12 -101 -2 -24 5 -28 2 -28 -16 -1 -19 -3 -18 -15 8 -7 17
-14 23 -14 15 -1 -13 -2 -13 -11 0 -6 10 -22 13 -50 11 -23 -1 -46 2 -53 7
-15 12 -97 12 -120 0 -14 -7 -22 -5 -31 7 -10 14 -17 15 -34 6 -29 -15 -37
-14 -22 4 13 15 7 17 -67 18 -13 0 -23 4 -23 9 0 5 -9 4 -19 -2 -11 -6 -22 -6
-25 -1 -3 5 -22 11 -42 13 -31 4 -40 0 -62 -28 -19 -23 -29 -30 -34 -21 -6 9
-12 7 -23 -7 -8 -10 -21 -16 -29 -13 -8 3 -16 3 -18 -1 -6 -15 -68 -53 -76
-48 -5 3 -18 -4 -30 -14 -29 -27 -33 -25 -21 10 6 17 17 30 24 30 8 0 17 5 21
12 4 7 3 8 -4 4 -19 -11 -14 12 7 33 10 10 22 20 27 22 13 6 56 68 58 85 2 13
46 61 46 50 0 -3 15 1 33 9 41 17 219 14 225 -4 2 -6 9 -8 15 -4 7 5 59 9 117
10 58 1 133 5 167 9 48 5 71 3 97 -10 19 -9 39 -16 45 -16 6 0 11 -7 11 -15 0
-8 7 -15 16 -15 9 0 12 5 8 12 -4 6 -3 8 4 4 16 -10 132 -14 132 -5 0 5 3 9 8
8 14 -2 52 14 52 22 0 13 39 31 95 44 59 13 96 9 88 -11z m-772 -403 c-7 -5
-11 -13 -7 -19 4 -7 -8 -9 -34 -7 -22 3 -40 0 -40 -5 0 -6 6 -10 13 -10 8 0 7
-3 -3 -9 -8 -6 -18 -7 -22 -5 -4 3 -8 -1 -8 -10 0 -23 -23 -25 -42 -4 -18 21
-38 17 -38 -8 0 -8 8 -14 18 -15 12 0 13 -2 3 -6 -8 -3 -19 1 -26 10 -17 24
-55 11 -55 -20 0 -14 4 -21 10 -18 6 4 8 10 5 14 -2 5 6 6 18 4 13 -3 34 -23
49 -49 29 -46 58 -58 58 -24 0 15 7 20 26 20 23 0 25 -3 22 -42 -2 -36 -7 -44
-25 -46 -16 -2 -23 2 -23 12 0 9 -4 16 -10 16 -15 0 0 -29 20 -40 10 -6 26 -7
34 -4 9 4 22 2 29 -3 16 -12 59 -14 52 -3 -4 6 12 8 38 5 29 -4 54 0 73 10 16
8 38 15 50 15 32 0 58 24 51 49 -3 11 -2 21 2 21 4 0 8 17 9 37 2 42 10 53 41
56 28 2 27 4 -11 27 -40 24 -22 26 27 3 21 -10 38 -27 42 -41 15 -59 -21 -198
-80 -307 -25 -48 -41 -64 -77 -82 -71 -35 -178 -53 -318 -53 -196 0 -327 37
-350 97 -27 73 -33 106 -39 214 -6 114 -5 118 18 141 27 27 158 63 279 77 103
12 238 13 221 2z m1414 -100 c64 -22 78 -46 70 -127 -8 -77 -37 -191 -61 -240
-11 -23 -33 -45 -54 -56 -112 -57 -446 -42 -598 27 -44 20 -56 32 -73 69 -54
123 -75 294 -41 335 19 23 68 33 66 14 -1 -7 -2 -31 -2 -53 -2 -30 -6 -40 -19
-41 -15 -1 -15 -2 1 -6 11 -3 26 -11 34 -19 11 -12 10 -14 -13 -14 -19 0 -25
-5 -23 -16 5 -26 -19 -28 -26 -2 -14 54 -7 108 19 133 25 26 22 34 -5 12 -41
-32 -48 -104 -20 -208 l11 -38 72 5 c123 9 197 6 274 -11 12 -3 25 -1 28 5 3
5 19 10 35 10 16 0 31 4 35 10 3 5 13 6 23 3 14 -5 15 -3 5 8 -19 19 -16 26
14 34 15 3 30 11 33 15 3 5 16 7 29 3 17 -4 21 -11 17 -28 -4 -17 -1 -24 16
-28 32 -9 56 9 64 48 8 45 33 60 63 39 20 -14 21 -21 16 -107 -4 -72 -2 -87 6
-67 6 14 15 32 19 41 4 8 14 50 20 92 16 96 5 129 -48 150 -44 17 -133 32
-114 19 9 -6 10 -16 4 -32 -9 -23 -9 -23 -20 7 -6 17 -8 34 -5 37 4 3 -3 6
-15 6 -12 0 -22 4 -22 9 0 10 109 -12 185 -38z"/>
<path d="M1225 1483 c3 -21 13 -60 24 -88 11 -27 32 -90 47 -138 25 -78 27
-94 18 -147 -17 -101 -7 -352 15 -405 5 -11 16 -60 25 -110 37 -194 156 -493
229 -572 l20 -23 657 0 c632 0 658 1 674 19 10 11 23 56 32 111 22 135 52 245
55 199 0 -8 7 13 15 46 14 59 62 167 77 173 4 2 7 19 7 38 0 19 3 34 8 34 4 0
8 12 9 28 5 76 4 160 -2 185 -4 16 -3 38 3 50 32 65 42 101 31 111 -9 8 -10 8
-5 -2 4 -6 -3 -26 -15 -43 -16 -23 -24 -28 -33 -19 -8 8 -7 15 6 24 11 8 14
17 8 26 -5 8 -7 17 -4 21 2 4 -4 13 -13 20 -15 12 -16 12 -10 -5 6 -14 4 -17
-9 -12 -14 6 -15 4 -4 -10 12 -13 11 -17 -1 -25 -8 -5 -23 -8 -34 -7 -26 3
-47 -10 -39 -24 4 -6 2 -8 -4 -4 -6 3 -17 -3 -25 -14 -7 -11 -17 -17 -20 -13
-4 3 -7 -2 -7 -11 0 -15 -5 -17 -26 -12 -21 6 -25 4 -21 -8 7 -19 -14 -21 -30
-5 -9 9 -14 5 -19 -14 -3 -15 -10 -24 -15 -21 -5 3 -9 -2 -9 -10 0 -12 -5 -14
-26 -6 -14 6 -32 10 -41 10 -13 0 -14 -2 -2 -17 11 -13 7 -12 -16 3 -16 12
-35 19 -41 17 -18 -6 -35 20 -43 66 -1 3 -6 0 -12 -6 -9 -9 -18 -8 -36 4 -22
14 -23 14 -16 -3 6 -16 5 -16 -20 2 -14 10 -27 25 -27 33 0 8 -6 11 -16 7 -8
-3 -12 -2 -9 4 3 5 -7 12 -22 16 -15 3 -34 7 -40 10 -7 2 -13 0 -13 -5 0 -4
-27 -8 -59 -7 -33 1 -58 -1 -57 -4 4 -11 -51 -55 -70 -55 -16 0 -19 -6 -16
-35 3 -33 2 -34 -12 -15 -13 16 -17 17 -25 6 -6 -9 -10 -10 -16 -2 -5 9 -10 9
-21 0 -11 -9 -18 -9 -29 1 -13 11 -14 10 -9 -4 4 -11 -1 -24 -15 -37 -14 -13
-21 -15 -21 -7 0 9 -3 9 -11 -2 -8 -11 -12 -12 -16 -2 -7 17 -33 15 -33 -3 0
-8 -6 -15 -13 -15 -8 0 -20 -12 -27 -27 -11 -23 -14 -25 -17 -10 -3 9 -9 14
-15 10 -7 -4 -9 0 -5 10 3 10 2 17 -3 17 -6 0 -10 -5 -10 -12 0 -6 -3 -8 -7
-5 -3 4 -12 2 -20 -4 -10 -9 -13 -7 -13 10 0 12 -4 20 -9 17 -14 -9 -42 5 -35
18 3 6 -4 0 -15 -14 -14 -17 -21 -20 -21 -10 -1 13 -2 13 -13 -1 -7 -8 -20
-18 -29 -22 -14 -5 -18 -1 -19 21 -1 17 -3 20 -6 10 -5 -22 -22 -23 -29 -3 -4
8 -10 15 -16 15 -5 0 -6 -4 -3 -10 11 -17 -15 -11 -46 11 -16 11 -36 36 -45
55 -19 40 -30 40 -14 0 6 -18 6 -25 0 -21 -6 3 -10 -3 -10 -15 0 -12 -5 -20
-11 -18 -6 2 -10 7 -10 11 1 4 -19 29 -44 55 -25 26 -41 48 -35 50 19 7 10 37
-20 66 -17 16 -30 32 -30 36 0 4 -12 12 -26 19 -15 6 -24 14 -21 18 4 3 13 0
22 -7 8 -7 15 -8 15 -2 0 5 -10 17 -22 26 -13 9 -17 14 -10 11 6 -3 12 -1 12
4 0 6 -4 11 -10 11 -5 0 -10 9 -10 20 0 11 -4 20 -10 20 -5 0 -10 9 -10 19 0
11 -4 23 -10 26 -5 3 -10 15 -10 26 0 10 -7 19 -16 19 -8 0 -21 15 -29 34 -8
19 -20 38 -26 41 -5 4 -8 13 -5 21 3 7 1 16 -4 19 -5 3 -7 15 -5 26 2 12 -2
33 -9 48 -7 14 -11 32 -9 39 3 7 -1 10 -11 6 -12 -5 -16 0 -16 19 0 14 -5 29
-10 32 -6 4 -8 -8 -5 -32z"/>
<path d="M2515 1268 c-27 -4 -65 -9 -84 -10 l-33 -1 23 -18 c13 -10 31 -19 39
-19 12 0 11 -3 -3 -11 -10 -6 -28 -9 -40 -8 -33 2 -87 -12 -81 -22 3 -5 9 -7
14 -4 5 3 12 0 15 -6 5 -7 -5 -10 -31 -7 -27 2 -39 -1 -38 -10 1 -6 2 -21 3
-33 0 -11 5 -17 11 -14 5 3 7 0 4 -9 -10 -26 62 -50 114 -38 35 8 40 7 31 -4
-15 -18 12 -19 30 -1 6 6 15 12 19 12 22 2 51 18 47 26 -4 5 0 9 8 9 9 0 17
12 19 29 2 17 2 30 -1 29 -30 -3 -62 5 -75 18 -21 21 -14 30 29 38 38 7 52 26
38 48 -6 11 -20 12 -58 6z"/>
</g>
</svg>
